<svg xmlns="http://www.w3.org/2000/svg" width="588" height="353"><path d="M0 0h588v353H0Z" class="cls-2" style="fill:#003c96;stroke-width:0"/><path fill="#f90000" d="M320.295 237.968c-.1-5.04-.559-10.652-1.278-17.019-10.854 23.678-43.874 31.787-94.997 31.787-58.723 0-99.68-10.305-99.68-10.305v15.794c1.852.377 54.995 11.058 106.035 11.058 78.403 0 89.347-29.569 89.924-31.315m-7.724-14.76c1.84-2.928 3.071-6.293 3.071-10.062 0-14.933-16.967-32.164-41.146-34.138-10.266 1.937-19.683 6.42-27.187 11.956 2.112-.101 49.865-1.974 65.263 32.245m42.466-1c0 31.574 27.018 54.535 55.317 54.535 19.57 0 29.873-8.796 30.682-9.516 7.664-7.77 13.608-16.424 17.068-24.335 0 0-15.182 19.117-39.408 19.117-24.002 0-46.916-17.272-46.916-42.104 0-24.957 18.223-36.681 18.223-36.681a137.88 133.896 0 0 0-13.858-4.985c-.135.088-21.108 13.692-21.108 43.969m109.309-11.162c0-45.74-46.125-83.097-132.606-83.097-68.44 0-98.933 24.75-98.933 24.75l-.922 18.367c.609-.624 27.462-27.866 95.414-27.866 85.46 0 124.423 38.844 124.423 74.202 0 19.464-5.067 28.675-5.38 29.23 10.443-8.163 18.003-20.694 18.003-35.584m-245.902-24.587c-.054-7.453-.55-13.971-1.624-19.567-6.468 28.917-86.545 71.919-86.545 71.919 7.5 1.402 14.81 2.674 21.98 3.776 56.2-32.468 65.95-55.536 66.19-56.128m-8.005-17.033c1.315-2.942 2.17-6.045 2.17-9.152 0-12.156-17.656-23.61-42.301-23.61-24.636 0-45.968 11.894-45.968 11.894l-.004 15.463c.08-.05 19.386-12.363 43.054-12.363 29.758 0 42.927 17.606 43.05 17.768" style="stroke-width:.588022"/><path d="M386.615 108.341c8.39 0 12.386-1.537 15.644-3.494v-12.26h-1.56s-1.991 13.567-13.31 13.567c-8.81 0-15.15-7.435-15.29-22.308.14-14.734 6.203-22.38 14.375-22.38 11.318 0 14.01 14.06 14.01 14.06h1.563V63.053c-3.947-2.046-8.95-3.773-15.573-3.773-14.236 0-25.51 9.129-25.51 24.567 0 16.002 11.486 24.495 25.65 24.495M278.9 95.367h-1.313c-4.81 6.714-12.749 9.982-16.626 9.982-3.872 0-4.829-1.8-4.829-6.243V84.163l4.648.351c4.51.354 6.626 3.173 8.175 6.696h.846V75.35h-.846c-1.48 3.665-3.595 6.555-8.101 6.908l-4.722.423V62.236s14.184.059 19.939 9.652h1.564l-3.169-11.835h-31.443v.917c1.69.984 2.962 3.03 2.962 7.891v29.892c0 4.865-1.271 6.908-2.962 7.896v.917h32.608zm31.46 2.911c5.255 7.193 8.877 10.064 14.165 10.064 2.817 0 4.37-.635 6.06-1.835l.212-.913c-3.878-2.47-8.317-7.617-14.025-15.018l-4.3-5.497c5.85-.987 12.19-4.37 12.19-12.265 0-7.756-5.914-12.758-19.165-12.758h-17.755v.914c1.69.987 2.957 3.03 2.957 7.895v29.888c0 4.724-1.127 6.842-2.957 7.895v.914h16.066v-.914c-1.624-.984-2.961-3.03-2.961-7.895V62.24h2.187c7.608 0 10.569 4.37 10.569 10.573 0 6.484-3.313 11.349-11.207 12.76v.843c.541.857 5.326 8.25 7.964 11.862M232.656 60.97v-.913H220.14l-12.901 34.14-15.016-34.139h-13.591v.913c2.946 1.976 4.622 4.657 4.485 11.632l-.334 22.205c-.13 6.77-2.275 10.647-4.755 11.842v.918h12.323v-.918c-2.48-1.195-4.619-5.006-4.822-11.914l.344-24.462 17.064 38.07h2.072l15.132-40.814v31.23c0 4.72-1.071 6.836-2.813 7.89v.918h15.329v-.918c-1.605-1.054-2.88-3.171-2.88-7.89V68.864c0-4.724 1.075-6.837 2.88-7.896m185.115 30.456 7.894-18.747 7.89 18.747zm27.904 4.014-15.288-36.16h-1.271L412.91 95.934c-2.399 5.57-5.849 9.306-8.881 10.713v.918h14.52v-.918c-3.313-1.9-4.513-5.633-2.467-10.925l.848-2.113h17.542l.778 1.975c2.68 6.414 1.62 10.22-1.127 11.063v.918h19.516v-.918c-3.242-2.042-5.421-5.218-7.963-11.208m-308.287-4.014 7.894-18.747 7.89 18.747zm27.904 4.014-15.292-36.161h-1.264l-16.21 36.656c-2.398 5.57-5.847 9.306-8.88 10.713v.918h14.52v-.918c-3.313-1.9-4.51-5.633-2.468-10.926l.849-2.112h17.541l.778 1.975c2.68 6.414 1.62 10.22-1.127 11.063v.917h19.517v-.917c-3.243-2.042-5.422-5.218-7.964-11.208M336.938 60.97c1.69.987 2.958 3.03 2.958 7.895v29.888c0 4.725-1.268 6.908-2.958 7.896v.917h16.066v-.917c-1.693-1.058-2.957-3.171-2.957-7.896V68.866c0-4.865 1.338-6.908 2.957-7.896v-.916h-16.068z" style="fill:#fff;stroke-width:.588022"/><path fill="#fff" d="M312.57 223.21c-15.398-34.218-63.153-32.345-65.263-32.243-3.037 2.242-5.76 4.658-8.097 7.15 3.144-.177 54.337-2.5 68.442 30.947 1.806-1.695 3.533-3.65 4.915-5.853m97.788 53.535c-28.298 0-55.317-22.961-55.317-54.535 0-30.273 20.97-43.88 21.108-43.969a127.815 124.122 0 0 0-10.025-2.602c-.148.114-19.826 15.11-19.826 48.054 0 40.578 35.26 60.387 62.031 60.387 7.318 0 12.28-1.289 12.466-1.335 7.53-4.167 14.387-9.58 20.24-15.514-.811.72-11.115 9.515-30.68 9.515m-83.056-133.54c-67.953 0-94.804 27.242-95.415 27.866l-.554 11.045c.786-1.046 23.56-30.455 98.428-30.455 75.414 0 112.756 34.05 112.756 70.682 0 19.804-9.212 31.45-9.424 31.718 4.674-1.73 9.184-4.247 13.257-7.425.313-.56 5.38-9.766 5.38-29.236 0-35.35-38.967-74.195-124.422-74.195m-7.01 94.762c-.574 1.747-11.518 31.316-89.922 31.316-51.04 0-104.185-10.682-106.036-11.06v7.92s50.208 11.067 102.171 11.067c47.96 0 82.932-10.602 93.296-28.043.426-3.413.578-7.117.493-11.2M218.44 186.461c-.242.593-9.992 23.661-66.19 56.128 4.39.675 8.73 1.28 13.033 1.815.283-.161 42.897-24.572 52.982-47.207.144-3.78.202-7.35.177-10.736m-51.057-34.801c-23.667 0-42.97 12.31-43.054 12.365v9.15c.034-.02 19.873-13.516 40.71-13.516 29.04 0 41.468 16.53 41.473 16.54 1.48-2.099 2.855-4.384 3.92-6.77-.118-.166-13.29-17.768-43.05-17.768" style="fill:#fff;stroke-width:.588022"/><path fill="#3250ff" d="M239.212 198.113c-4.746 5.06-7.9 10.427-8.866 15.275 0 0 48.232-3.856 66.044 23.318 0 0 5.973-2.692 11.265-7.647-14.107-33.447-65.297-31.12-68.44-30.946m107.087 25.577c0-32.94 19.678-47.94 19.826-48.055-5.507-1.2-11.087-2.035-16.666-2.429 0 0-19.7 16.726-19.7 50.603 0 44.286 30 67.273 60.91 67.273 10.644 0 20.893-3.234 30.13-8.342-.185.051-5.147 1.336-12.466 1.336-26.771 0-62.031-19.808-62.031-60.387m-16.538-72.036c-74.867 0-97.642 29.408-98.429 30.456l-.964 19.222c15.177-21.83 44.395-33.99 99.133-33.99 61.715 0 96.744 23.355 96.744 60.021 0 19.032-12.331 29.12-12.331 29.12 6.235.823 12.85-.093 19.17-2.433.212-.266 9.424-11.914 9.424-31.718 0-36.636-37.338-70.681-112.755-70.681M226.507 277.203c-51.967 0-102.176-11.068-102.176-11.068v16.48s49.978 11.102 106.142 11.102c33.269 0 65.827-6.579 79.519-22.258 5.702-6.532 8.696-13.445 9.81-22.3-10.365 17.443-45.335 28.044-93.296 28.044m-61.22-32.808c7.115.886 14.128 1.577 21.082 2.018 10.614-5.766 27.01-21.135 30.804-31.346.507-6.391.888-12.347 1.095-17.879-10.08 22.631-52.698 47.046-52.982 47.207m-.238-84.75c-20.838 0-40.677 13.497-40.71 13.522v15.264s18.058-13.947 38.578-13.947c22.378 0 32.763 13.45 32.763 13.45s5.985-4.874 10.84-11.749c-.007-.008-12.431-16.54-41.47-16.54" style="stroke-width:.588022"/><path d="M435.806 134.371h-3.303v-1.025h7.732v1.025h-3.304v8.829h-1.125zM442.313 133.343h1.125l3.583 5.379 3.583-5.379h1.125v9.859h-1.108v-7.985l-3.587 5.28h-.055l-3.583-5.267v7.972h-1.083z" style="fill:#fff;fill-opacity:1;fill-rule:nonzero;stroke:none;stroke-width:4.23421"/></svg>