<svg xmlns="http://www.w3.org/2000/svg" width="588" height="353"><defs><path id="a" d="M700.79 405.92c-9.51 7.52-19.8 14.65-30.5 20.2-3.96 1.58-13.86 4.75-30.5 4.75-68.52 0-118.82-53.86-118.82-120 0-60.6 41.59-91.09 41.59-91.49 5.94 1.19 12.28 3.17 16.63 4.36-1.58 1.19-43.57 28.12-43.57 86.73 0 67.33 57.03 108.12 110.5 108.12 21.8-.39 40.42-5.14 54.67-12.67m22.97-102.18c0 40-11.09 57.82-15.05 62.97-5.94 3.96-12.28 7.13-19.41 9.51 1.19-1.58 20.2-25.74 20.2-66.14 0-87.92-102.97-138.22-220.6-138.22-145.35-.4-195.65 59.8-195.65 59.8l.79-17.82c.79-.79 50.69-55.84 196.44-55.84 125.95 0 233.28 55.84 233.28 145.74M451.68 318c-2.38 3.17-5.15 5.94-8.32 9.11-.4-1.58-13.86-66.54-133.07-65.35 3.96-3.96 7.92-7.52 12.28-10.69.79 0 103.76-5.15 129.11 66.93m18.22 41.98c-20.99 34.06-72.48 55.45-182.98 55.45s-203.17-19.8-203.57-19.8v-13.07s111.69 19.8 202.78 19.8c166.74 0 182.58-57.82 184.16-66.93 0 9.11 0 17.82-.39 24.55M270.29 256.61c-24.95 50.69-104.95 94.26-112.87 98.22-5.94-.79-12.28-1.58-19.01-2.77 3.17-1.19 40.4-19.01 78.81-51.49 34.46-28.91 47.13-49.9 53.47-62.97-.4 5.94-.4 12.68-.4 19.01m-18.22-43.96c-2.38 4.36-4.75 7.92-7.53 11.49-1.19-1.98-25.74-37.23-76.83-37.23-46.73 0-84.36 26.93-84.36 27.33v-15.45s38.42-24.56 83.96-24.56c57.83 0 82.38 34.46 84.76 38.42"/><path id="b" d="M639.8 430.48c16.63 0 26.54-3.17 30.5-4.75-24.55 13.07-50.69 20.59-72.08 20.59-70.1 0-111.69-62.97-111.69-133.87 0-65.74 40-99.01 40-99.01 13.07 1.19 25.35 3.17 36.04 5.54 0 0-41.59 30.89-41.59 91.49.01 66.15 50.7 120.01 118.82 120.01m69.71-120.8c0 40-18.61 64.16-20.2 66.14-12.28 3.96-25.74 5.54-40.79 3.17 0 0 28.12-20.2 28.12-59.41 0-70.89-71.29-115.25-188.52-115.25-94.66 0-158.42 16.63-196.44 67.33l1.58-40s50.3-60.2 195.25-60.2c117.63 0 221 50.3 221 138.22m-266.15 17.43c-5.54 4.75-12.28 9.51-21.39 13.47-15.05-26.14-61.39-49.9-130.7-45.94 1.58-12.28 9.11-23.37 18.61-33.27 119.62-.8 133.08 64.16 133.48 65.74m26.54 32.87c0 2.38-.4 3.96-.79 5.54-3.17 20.99-12.67 86.73-182.18 86.73-105.75 0-203.57-22.18-203.57-22.18v-34.85s98.22 19.8 203.57 19.8 161.97-21.37 182.97-55.04M270.29 256.61c-.4 12.67-1.19 25.74-2.38 38.42 0 0-13.86 36.83-61.39 64.56 0 0-20.2-1.19-49.51-4.75 8.32-3.97 88.32-47.53 113.28-98.23M168.1 187.3c-47.13 0-84.75 26.93-84.75 26.93v32.87s35.64-28.52 77.63-28.52c41.98 0 62.97 26.93 62.97 26.93 2.38-1.19 11.88-9.51 20.2-20.99-.8-1.97-25.35-37.22-76.05-37.22"/><path id="d" d="M740 347.31c-3.96 21.78-19.01 41.98-39.21 58.22-14.26 7.52-32.87 12.28-54.66 12.28-53.86 0-110.5-40.79-110.5-108.12 0-58.62 41.98-85.55 43.57-86.74 13.86 3.96 24.16 8.32 29.31 11.09 0 0-37.62 22.58-37.62 70.89 0 48.32 44.36 81.98 91.88 81.98 47.53.4 77.23-39.6 77.23-39.6m12.28-59.41c0 28.12-15.84 60.6-43.57 78.42 3.96-5.15 15.05-22.97 15.05-62.97 0-89.51-107.33-145.35-233.27-145.35-145.75 0-195.25 55.05-196.05 55.84l1.98-39.61s59.41-49.11 196.05-49.11c164.36 0 259.81 70.5 259.81 162.78M451.68 318c-25.35-72.48-128.32-67.33-129.11-67.33 16.63-12.67 36.04-21.39 47.53-24.16 61.39 1.19 89.9 36.04 91.09 65.35.39 5.15-1.2 15.05-9.51 26.14m-165.55 84.36c-91.09 0-201.99-19.8-202.78-19.8V348.9s81.19 20.6 196.84 20.6c94.66 0 168.72-13.86 186.94-66.14 1.19 9.11 2.38 20.6 2.77 31.68-1.59 9.5-17.43 67.32-183.77 67.32m-15.84-165.15c-6.34 13.07-19.01 34.06-53.47 62.97-38.42 32.48-75.65 50.69-78.81 51.88-13.86-2.38-29.31-4.75-45.15-7.92 0 0 57.43-30.5 103.77-64.95 72.87-54.26 68.91-82.77 68.91-82.77 3.16 6.33 4.75 21.78 4.75 40.79m-11.89-52.28c-1.58-15.45-26.93-42.77-83.96-42.77-48.32 0-91.49 23.76-91.49 23.76v32.87s38.42-24.56 83.96-24.56c57.82 0 82.38 34.46 84.76 38.42 5.15-8.71 7.92-18.22 6.73-27.72"/></defs><path d="M0 0h588v353H0Z" class="cls-2" data-name="레이어 1" style="fill:#003c96;stroke-width:0"/><path fill="#f90000" d="M320.007 202.076c-.1-5.033-.56-10.637-1.28-16.996-10.877 23.647-43.968 31.745-95.201 31.745-58.848 0-99.893-10.291-99.893-10.291v15.772c1.856.377 55.112 11.044 106.262 11.044 78.571 0 89.538-29.53 90.116-31.274m-7.74-14.74c1.844-2.925 3.078-6.285 3.078-10.049 0-14.913-17.004-32.121-41.235-34.093-10.287 1.934-19.725 6.413-27.245 11.94 2.116-.1 49.972-1.97 65.403 32.203m42.557-.999c0 31.532 27.075 54.464 55.435 54.464 19.611 0 29.937-8.785 30.748-9.504 7.68-7.76 13.637-16.403 17.104-24.303 0 0-15.214 19.092-39.492 19.092-24.053 0-47.016-17.25-47.016-42.048 0-24.925 18.262-36.633 18.262-36.633a138.175 133.718 0 0 0-13.888-4.978c-.135.088-21.153 13.673-21.153 43.91m109.542-11.147c0-45.68-46.223-82.987-132.89-82.987-68.585 0-99.144 24.718-99.144 24.718l-.924 18.342c.61-.623 27.521-27.83 95.619-27.83 85.642 0 124.689 38.793 124.689 74.105 0 19.438-5.078 28.637-5.392 29.192 10.466-8.153 18.041-20.667 18.041-35.538m-246.427-24.555c-.055-7.442-.551-13.952-1.628-19.54-6.481 28.878-86.73 71.823-86.73 71.823 7.516 1.4 14.84 2.67 22.027 3.772 56.32-32.426 66.09-55.463 66.332-56.055m-8.023-17.01c1.319-2.938 2.175-6.037 2.175-9.14 0-12.14-17.694-23.578-42.392-23.578-24.688 0-46.066 11.878-46.066 11.878l-.004 15.442c.08-.05 19.428-12.347 43.147-12.347 29.821 0 43.018 17.584 43.141 17.745" style="stroke-width:.588262"/><path fill="#fff" d="M312.266 187.339c-15.43-34.174-63.289-32.304-65.403-32.201-3.043 2.239-5.773 4.652-8.114 7.14 3.15-.177 54.453-2.497 68.588 30.906 1.81-1.692 3.54-3.644 4.926-5.845m97.997 53.465c-28.359 0-55.435-22.932-55.435-54.464 0-30.233 21.014-43.822 21.153-43.91a128.089 123.958 0 0 0-10.046-2.6c-.149.115-19.87 15.091-19.87 47.992 0 40.523 35.337 60.307 62.165 60.307 7.333 0 12.306-1.288 12.492-1.333 7.546-4.162 14.418-9.568 20.285-15.494-.814.72-11.14 9.503-30.747 9.503M327.024 107.44c-68.1 0-95.008 27.207-95.62 27.83l-.555 11.03c.788-1.045 23.611-30.415 98.639-30.415 75.575 0 112.997 34.006 112.997 70.589 0 19.777-9.232 31.409-9.444 31.676 4.684-1.727 9.203-4.241 13.285-7.416.314-.559 5.392-9.752 5.392-29.196 0-35.304-39.051-74.098-124.688-74.098m-7.025 94.638c-.576 1.744-11.543 31.274-90.115 31.274-51.149 0-104.407-10.668-106.263-11.045v7.908s50.315 11.053 102.39 11.053c48.063 0 83.11-10.587 93.495-28.006.428-3.408.58-7.107.494-11.184m-102.07-51.44c-.243.592-10.014 23.63-66.332 56.054 4.399.673 8.749 1.278 13.06 1.812.284-.16 42.99-24.54 53.096-47.145.144-3.775.203-7.34.177-10.722m-51.165-34.755c-23.718 0-43.063 12.293-43.147 12.35v9.138c.034-.02 19.916-13.499 40.798-13.499 29.102 0 41.556 16.509 41.56 16.518 1.483-2.096 2.862-4.378 3.93-6.76-.119-.166-13.319-17.746-43.142-17.746" style="fill:#fff;stroke-width:.588262"/><path fill="#3250ff" d="M238.751 162.274c-4.756 5.054-7.918 10.413-8.885 15.255 0 0 48.335-3.851 66.185 23.287 0 0 5.986-2.688 11.29-7.637-14.138-33.403-65.438-31.079-68.588-30.905m107.317 25.543c0-32.896 19.72-47.876 19.869-47.991-5.52-1.198-11.11-2.033-16.702-2.426 0 0-19.742 16.704-19.742 50.536 0 44.228 30.064 67.184 61.04 67.184 10.666 0 20.938-3.23 30.195-8.33-.186.05-5.159 1.333-12.493 1.333-26.829 0-62.164-19.782-62.164-60.307m-16.573-71.94c-75.028 0-97.851 29.369-98.64 30.415l-.966 19.197c15.21-21.801 44.49-33.946 99.346-33.946 61.846 0 96.95 23.324 96.95 59.943 0 19.006-12.357 29.081-12.357 29.081 6.248.822 12.878-.093 19.211-2.43.212-.266 9.444-11.898 9.444-31.676 0-36.587-37.418-70.588-112.996-70.588M226.019 241.26c-52.079 0-102.395-11.052-102.395-11.052v16.458s50.086 11.087 106.369 11.087c33.34 0 65.968-6.57 79.69-22.229 5.714-6.523 8.714-13.427 9.83-22.27-10.386 17.42-45.431 28.006-93.495 28.006m-61.351-32.765c7.13.886 14.158 1.576 21.127 2.016 10.637-5.758 27.067-21.107 30.87-31.304.508-6.383.89-12.331 1.097-17.856-10.102 22.602-52.81 46.984-53.095 47.145m-.238-84.638c-20.883 0-40.765 13.479-40.798 13.504v15.244s18.097-13.928 38.66-13.928c22.426 0 32.834 13.432 32.834 13.432s5.998-4.868 10.864-11.734c-.008-.008-12.459-16.518-41.56-16.518" style="stroke-width:.588262"/></svg>